<?xml version="1.0" standalone="no"?>
<!DOCTYPE svg PUBLIC "-//W3C//DTD SVG 20010904//EN"
 "http://www.w3.org/TR/2001/REC-SVG-20010904/DTD/svg10.dtd">
<svg version="1.0" xmlns="http://www.w3.org/2000/svg"
 width="980.000000pt" height="906.000000pt" viewBox="0 0 980.000000 906.000000"
 preserveAspectRatio="xMidYMid meet">
<metadata>
Created by potrace 1.16, written by Peter Selinger 2001-2019
</metadata>
<g transform="translate(0.000000,906.000000) scale(0.100000,-0.100000)"
fill="#000000" stroke="none">
<path d="M4590 9054 c-296 -22 -755 -117 -1080 -224 -1240 -409 -2221 -1319
-2595 -2410 -110 -323 -163 -621 -183 -1034 l-8 -159 -30 -26 c-17 -14 -83
-70 -147 -124 -347 -290 -568 -686 -544 -973 19 -221 159 -367 432 -449 50
-15 100 -37 112 -48 14 -15 32 -61 51 -137 46 -176 104 -292 209 -418 l45 -52
-67 -73 c-132 -143 -201 -275 -225 -430 -25 -153 7 -315 89 -458 57 -99 76
-161 95 -314 51 -399 206 -746 471 -1052 177 -205 369 -352 633 -487 242 -122
319 -144 597 -167 99 -8 772 -13 2275 -16 2655 -6 2955 1 3167 72 82 28 316
143 420 206 524 321 879 883 938 1489 10 103 30 167 78 249 71 122 98 209 104
333 9 172 -30 313 -127 458 -27 41 -50 81 -50 88 0 7 34 151 76 321 l75 309
97 64 c177 115 264 227 293 376 33 171 -37 402 -187 620 -89 129 -221 289
-279 338 -34 29 -48 49 -55 79 -5 23 -14 149 -19 280 -20 457 -36 605 -87 812
-215 878 -787 1666 -1600 2206 -343 228 -676 389 -1079 523 -367 121 -664 181
-1060 214 -134 11 -737 21 -835 14z m635 -364 c1339 -73 2489 -677 3143 -1652
326 -486 512 -1103 512 -1703 l0 -155 -3890 0 -3890 0 0 138 c0 414 84 824
248 1217 435 1041 1452 1810 2737 2070 388 79 754 106 1140 85z m1076 -3889
l2596 -6 98 -75 c231 -177 387 -370 431 -535 17 -62 17 -99 0 -148 -33 -92
-92 -145 -177 -158 -26 -4 -71 -19 -101 -32 -70 -34 -144 -41 -259 -28 -198
24 -376 84 -634 213 -192 95 -351 194 -470 290 -160 129 -180 132 -377 59
-246 -90 -454 -124 -758 -124 -344 1 -559 42 -820 159 -67 30 -98 38 -147 38
-86 1 -121 -29 -193 -165 -73 -140 -152 -220 -270 -277 -142 -68 -329 -102
-556 -102 -311 0 -487 65 -703 261 -59 53 -122 104 -140 114 -54 28 -117 16
-281 -53 -270 -113 -359 -127 -805 -127 -304 1 -338 2 -433 23 -123 27 -257
74 -385 136 -52 25 -108 49 -124 52 -36 7 -107 -19 -323 -121 -391 -183 -533
-225 -760 -225 -286 0 -400 117 -330 341 34 113 110 213 303 401 l110 107
1456 -5 c801 -3 2624 -9 4052 -13z m-238 -852 l247 -61 -33 -47 c-19 -25 -157
-221 -307 -436 -441 -629 -651 -914 -678 -915 -29 -1 -1229 770 -1821 1169
-118 80 -150 106 -138 113 18 10 360 108 376 108 6 0 53 -32 103 -70 174 -132
384 -221 603 -255 133 -21 428 -16 570 9 313 57 468 132 664 323 74 71 134
122 146 123 11 0 131 -27 268 -61z m1608 -13 c258 -167 629 -346 823 -397 61
-16 188 -40 281 -54 226 -33 215 -30 215 -63 -1 -15 -15 -83 -33 -152 l-32
-125 -150 -12 c-451 -36 -1203 -85 -1905 -122 -521 -28 -683 -34 -698 -23 -11
8 -10 17 8 53 49 97 484 712 557 786 44 46 57 53 90 53 93 0 449 66 568 105
122 40 145 36 276 -49z m-5716 -86 c191 -61 338 -92 555 -120 91 -11 170 -22
177 -25 45 -16 988 -631 1018 -664 30 -35 6 -42 -120 -36 -60 3 -218 10 -350
15 -510 22 -1388 71 -1640 91 -137 11 -287 32 -343 48 -97 29 -175 106 -237
235 -30 63 -75 202 -75 232 0 7 40 19 93 29 175 33 478 138 633 219 70 36 112
33 289 -24z m-235 -1120 c179 -11 865 -49 1524 -85 l1199 -65 311 -201 c171
-110 363 -234 426 -275 l115 -74 -1355 0 c-745 0 -1683 3 -2084 7 l-728 6 -50
38 c-106 79 -153 183 -153 339 0 82 4 103 26 151 41 86 107 143 204 176 44 14
43 14 565 -17z m7192 -23 c83 -48 131 -125 149 -240 19 -118 -18 -242 -96
-326 -70 -75 -117 -90 -308 -103 -180 -11 -3181 -8 -3192 4 -4 4 15 33 42 65
26 32 105 137 175 234 70 97 143 190 162 207 42 37 5 33 626 67 256 14 569 32
695 40 1251 78 1357 84 1545 81 149 -2 158 -3 202 -29z m-214 -1053 l163 -7
-6 -41 c-12 -71 -85 -277 -135 -381 -76 -158 -161 -277 -290 -405 -125 -126
-241 -210 -395 -289 -200 -103 -299 -130 -570 -152 -196 -16 -4115 -25 -4615
-10 -576 17 -633 28 -902 163 -156 79 -272 162 -393 283 -124 124 -209 244
-285 400 -64 131 -128 312 -137 387 -5 42 -3 48 13 49 205 16 7167 18 7552 3z"/>
<path d="M4355 8118 c-61 -36 -98 -95 -98 -160 0 -200 253 -255 345 -75 74
146 -106 317 -247 235z"/>
<path d="M5100 8118 c-131 -68 -141 -234 -19 -315 80 -53 177 -33 243 50 27
34 31 47 31 102 0 71 -14 96 -78 148 -50 41 -116 47 -177 15z"/>
<path d="M3645 7945 c-52 -18 -111 -82 -125 -134 -14 -53 -5 -102 30 -149 73
-101 223 -95 296 10 59 84 33 195 -57 250 -57 35 -95 41 -144 23z"/>
<path d="M5885 7951 c-101 -24 -170 -129 -145 -222 13 -47 68 -111 110 -129
48 -20 132 -8 174 24 136 103 81 295 -94 331 -8 1 -28 0 -45 -4z"/>
<path d="M2879 7750 c-80 -42 -122 -128 -101 -206 16 -60 47 -100 97 -124 93
-45 201 -4 246 95 10 22 19 54 19 70 0 17 -9 48 -19 70 -45 98 -155 141 -242
95z"/>
<path d="M6595 7756 c-103 -46 -147 -162 -95 -254 61 -108 185 -133 271 -55
52 47 69 81 69 138 0 54 -16 88 -62 132 -55 53 -120 67 -183 39z"/>
<path d="M7320 7561 c-19 -10 -48 -35 -65 -55 -27 -34 -30 -45 -30 -106 0 -61
3 -72 31 -106 77 -95 196 -103 275 -17 39 42 51 71 51 124 0 59 -28 109 -85
150 -49 35 -122 40 -177 10z"/>
<path d="M4185 7386 c-38 -17 -91 -73 -104 -109 -38 -100 31 -223 135 -243
109 -20 217 70 217 182 0 54 -41 125 -89 155 -44 27 -118 34 -159 15z"/>
<path d="M5099 7377 c-102 -54 -135 -171 -74 -259 63 -90 176 -113 252 -51 64
52 78 77 78 148 0 55 -4 68 -31 102 -35 44 -105 83 -150 83 -17 0 -51 -10 -75
-23z"/>
<path d="M2125 7185 c-102 -61 -123 -186 -48 -275 70 -84 179 -86 259 -6 53
53 72 110 55 166 -14 46 -61 104 -102 126 -44 22 -117 18 -164 -11z"/>
<path d="M3435 7194 c-95 -49 -131 -155 -85 -249 24 -50 65 -81 123 -94 58
-14 108 1 157 45 49 45 64 81 58 149 -5 63 -40 115 -98 146 -42 23 -114 24
-155 3z"/>
<path d="M5845 7196 c-76 -33 -125 -131 -104 -208 14 -55 81 -122 134 -137
143 -38 273 125 206 257 -45 87 -149 126 -236 88z"/>
<path d="M6595 7016 c-43 -18 -102 -88 -114 -133 -30 -109 80 -233 195 -220
89 10 164 92 164 179 0 55 -15 91 -57 130 -55 53 -129 70 -188 44z"/>
<path d="M2875 6821 c-119 -72 -136 -220 -35 -305 64 -54 144 -54 221 -2 40
27 79 96 79 139 0 61 -53 142 -112 173 -38 20 -117 18 -153 -5z"/>
<path d="M8053 6814 c-112 -67 -124 -212 -24 -295 78 -64 164 -59 237 15 74
73 79 166 14 240 -62 70 -152 86 -227 40z"/>
<path d="M3992 6639 c-51 -26 -86 -69 -101 -126 -13 -49 -7 -82 25 -140 32
-56 96 -87 165 -81 55 6 87 25 132 80 69 86 31 220 -78 269 -53 24 -91 24
-143 -2z"/>
<path d="M4729 6637 c-61 -32 -101 -98 -101 -166 1 -130 129 -217 245 -167 39
17 92 71 106 109 34 88 -16 192 -111 232 -52 21 -87 19 -139 -8z"/>
<path d="M5494 6649 c-46 -13 -109 -81 -124 -132 -38 -136 113 -268 243 -214
18 8 49 32 69 55 83 92 54 220 -62 280 -47 23 -75 26 -126 11z"/>
<path d="M7340 6644 c-113 -49 -154 -167 -91 -266 33 -51 96 -88 153 -88 107
0 205 123 177 223 -13 49 -64 105 -114 128 -48 22 -79 23 -125 3z"/>
<path d="M1950 6451 c-19 -10 -48 -35 -64 -55 -42 -51 -48 -142 -14 -201 75
-128 250 -119 318 16 76 148 -95 318 -240 240z"/>
<path d="M3445 6271 c-22 -10 -55 -34 -72 -54 -99 -113 -15 -297 135 -297 101
0 182 82 182 185 0 74 -46 138 -122 169 -48 20 -74 20 -123 -3z"/>
<path d="M6420 6279 c-44 -18 -90 -59 -110 -99 -38 -75 -21 -150 48 -212 92
-83 219 -54 280 63 41 77 13 172 -67 225 -42 27 -114 39 -151 23z"/>
</g>
</svg>
